<svg xmlns="http://www.w3.org/2000/svg" xmlns:xlink="http://www.w3.org/1999/xlink" version="1.1" id="Layer_1" x="0px" y="0px" viewBox="0 0 350 100" style="enable-background:new 0 0 350 100;" xml:space="preserve">
<style type="text/css">
	.st0{fill:#1B194C;}
	.st1{fill:#FFFFFF;}
	.st2{fill-rule:evenodd;clip-rule:evenodd;fill:#FFFFFF;}
</style>
<g>
	
	<g>
		<g>
			<g id="XMLID_417_">
				<polygon id="XMLID_418_" class="st0" points="74.68,2 74.68,10.26 60.79,10.26 60.79,2 45.62,2 45.62,10.26 31.73,10.26       31.73,2 16.55,2 16.55,15.77 20.78,22.09 85.63,22.09 89.86,15.77 89.86,2     "/>
			</g>
			<g id="XMLID_404_">
				<g id="XMLID_410_">
					<g id="XMLID_411_">
						<g id="XMLID_412_">
							<g id="XMLID_413_">
								<path class="st1" d="M50.16,21.85h0.92c0,0,0.37-1.13,2.12-1.25c1.75,0.12,2.12,1.25,2.12,1.25h0.92          c-0.19-0.74-1.21-1.53-1.21-1.53h0.14v-0.59H54.8c-0.39-0.43-0.69-1.61-0.69-1.61h0.19v-0.26h-0.28          c-0.3-0.53-0.62-4.96-0.62-4.96h0.17v-0.35h-0.11v-0.33h-0.22v-0.96h-0.08v0.96h-0.22v0.33h-0.11v0.35h0.17          c0,0-0.32,4.43-0.62,4.96H52.1v0.27h0.19c0,0-0.3,1.18-0.69,1.61h-0.37v0.59h0.14C51.37,20.32,50.35,21.11,50.16,21.85z           M53.55,17.88h-0.28h-0.14h-0.28l0.3-1.7h0.08L53.55,17.88z M52.54,19.77l0.36-1.36h0.23h0.14h0.24l0.36,1.36h-0.63h-0.05          H52.54z"/>
							</g>
						</g>
					</g>
				</g>
			</g>
			<g id="XMLID_402_">
				<polygon class="st1" points="69.31,20.98 69.09,20.98 69.09,20.43 68.83,20.43 68.83,21.03 68.57,21.26 68.57,21.44       67.97,21.44 67.97,21.02 67.72,20.81 67.47,21.02 67.47,21.3 67,21.3 67,21.04 66.58,21.04 66.58,19.8 66.11,19.5 65.16,19.78       65.16,20.47 64.9,20.47 64.9,18.96 63.65,18.96 63.42,19.17 63.42,20.15 63.15,20.15 63.15,19.87 62.63,19.87 62.63,18.71       61.31,18.71 61.31,19.7 60.84,19.7 60.84,19.07 60.24,19.07 60.24,17.9 59.99,17.9 59.99,16.26 59.67,15.11 59.34,16.3       59.34,17.92 59.2,17.92 59.2,19.11 58.53,19.11 58.53,19.87 58.04,19.87 58.04,20.13 57.74,20.13 57.74,19.09 57.48,18.86       56.41,18.86 56.09,19.14 56.09,21 55.46,20.84 55.46,20.37 55.21,20.37 55.21,20.23 54.68,20.23 54.68,21.04 54.09,21.04       54.09,19.24 53.11,19.6 53.11,21.48 52.86,21.48 52.86,20.98 51.97,20.98 51.97,21.48 51.63,21.48 51.63,20.9 51.16,20.9       51.16,21.36 49.9,21.36 49.9,22.53 69.95,22.48 69.95,21.55     "/>
			</g>
			<g id="XMLID_399_">
				<g>
					<path class="st1" d="M68.28,21.84v0.67l17.31,0.01V22.1h-0.14v-0.41h-0.03v-0.35h-0.51v0.35h-0.05v0.16h-0.45v-1.48       c0,0-0.09,0.04-0.09,0c0-0.04,0-0.62,0-0.62h-0.14v-0.14h-0.5l-0.16,0.15v1.41c0,0-0.36-0.05-0.56,0.35h-0.06v-2.26h-0.27       l-0.14,0.15h-0.18L82,19.73l-0.06,1.63h-0.09v-2.44h-0.09v-0.17h-0.71v0.14l-0.05,0.05v0.22l-0.2-0.06h-0.76l-0.28,0.1v0.41       h-0.13v-1.5h-0.06v-0.32h-0.59v0.3h-0.06v3.03h-0.27v-0.61h-0.22v-0.99h-0.19v-0.37h-0.07v-0.29l-0.35-0.47l-0.35,0.46v0.28       h-0.08v0.38h-0.17v1.61H76.9v-0.47h-0.25v-1.8l-0.12-0.12v-0.16h-0.74v1.69l-0.11-0.11v-0.3l-0.31-1.05l-0.35,1v0.32l-0.1,0.1       v-0.54h-0.64v0.15l-0.15,0.15v0.44l-0.09-0.09v-1.17h-0.79v1.59l-0.11-0.12v-0.28l-0.19-0.19h-0.38l-0.22,0.22v1.25h-0.19v0.07       h-2.2v-1.45c0,0-0.2-0.24-0.24-0.23c-0.04,0.01-0.49,0-0.49,0v0.12h-0.25v1.83h-0.19v-0.61h-0.06l-0.06-0.95h-0.12l-0.1,0.92       h-0.06v0.5H68.28z M69.99,21.82l2.18,0.02l0,0.17l0.18,0l0,0.25l-2.36,0.02L69.99,21.82z"/>
				</g>
			</g>
			<g id="XMLID_7_">
				<g>
					<path class="st1" d="M37.33,20.78h-0.13v0.09h-0.18c0,0-0.03,0.04-0.05,0.08c0-0.12-0.01-0.41-0.01-0.41h-0.08v-0.16H36.6v0.15       h-0.09v0.86h-0.18v-0.45l-1.19,0V20.4H34.8v-0.22h-0.43v0.22l-0.29,0l-0.13,0.4l0-1.69h-0.44v-0.2h-0.51v0.18h-0.28v0.37h-0.14       v0.25h-0.1v1.01l-0.14-0.28h-0.2v-0.43h-0.13v-0.45h-0.33v0.43h-0.15v0.43h-0.26v0.13h-0.1l0-1.4h-0.11v-0.16h-0.55v0.17h-0.12       v0.66h-0.75v-0.22l-0.52-0.07l-0.13,0.32v-0.59h-0.17v-0.08h0.21V19h-1.11v0.19h0.18v0.09h-0.15v0.6l-0.32-0.22h-0.15v0.08       H27.3v0.44h-0.1l0-0.35l-0.19-0.28h-0.28l-0.17,0.3v0.77h-0.17l-0.38,0.27l0-1.15l-0.15-0.1v-0.14h-0.12v0.15l-0.1,0.08v0.5       l-0.06,0.04v-1.06h0.09v-0.12h-0.83v0.15h0.09l0,0.78l-0.17-0.12l-0.93,0l-0.33,0.23v0.61c-0.42,0.02-0.78,0.09-1.1,0.18       l-0.53-0.1v0.29c-0.14,0.06-0.26,0.13-0.37,0.19c-0.5,0.29-0.74,0.58-0.74,0.58l0.01,0h-0.04v0.46l16.86,0.2l0-1.42       L37.33,20.78z M20.77,21.86c0.03-0.03,0.26-0.31,0.73-0.58c0.11-0.06,0.22-0.12,0.36-0.18v0.03c-0.13,0.06-0.24,0.12-0.33,0.17       c-0.42,0.24-0.65,0.49-0.72,0.56L20.77,21.86L20.77,21.86z M21.54,21.31c0.09-0.05,0.2-0.11,0.32-0.17v0.05       c-0.02,0.01-0.04,0.02-0.05,0.03c-0.49,0.29-0.77,0.67-0.82,0.74v-0.1h-0.16C20.91,21.78,21.14,21.54,21.54,21.31z        M21.67,21.51c-0.27,0.16-0.47,0.32-0.59,0.43L21,21.97c0.04-0.06,0.32-0.44,0.82-0.73c0.01-0.01,0.03-0.02,0.04-0.03v0.19       C21.79,21.44,21.73,21.47,21.67,21.51z M21.86,21.42v0.23l-0.71,0.27c0.12-0.11,0.31-0.26,0.56-0.41       C21.76,21.48,21.81,21.45,21.86,21.42z M21.87,22.21l-0.89,0.11v-0.24l0.01,0c0,0,0,0,0.01,0l0.88-0.2L21.87,22.21L21.87,22.21       z M22.43,20.9c0.31-0.08,0.66-0.15,1.07-0.17v0.01c-0.38,0.02-0.72,0.08-1.02,0.16L22.43,20.9z M22.51,20.91       c0.29-0.08,0.61-0.13,0.98-0.15v0.16c-0.23-0.04-0.45-0.04-0.68-0.02c-0.08,0.01-0.15,0.02-0.23,0.03L22.51,20.91z        M23.49,20.93v0.02c-0.24,0.02-0.47,0.06-0.68,0.11v-0.09l-0.18-0.04C22.88,20.89,23.17,20.88,23.49,20.93z M22.81,21.08       c0.21-0.05,0.43-0.08,0.68-0.1v0.26l-0.68,0.23C22.81,21.46,22.81,21.08,22.81,21.08z M23.52,22.07l-0.67,0.05l-0.01-0.43       l0.7-0.18L23.52,22.07z"/>
				</g>
			</g>
			<g id="XMLID_4_">
				<g>
					<path class="st1" d="M31.52,22.02v0.43h18.64v-0.43H49.9V20.3h-0.09v-0.15h-0.09v-0.13h-0.09v-0.16H49.5v-0.17h-0.08v-0.17       h-0.18v0.17h-0.08v0.16h-0.11v0.17h-0.09v0.14h-0.09v0.24h-0.1v-0.3l-0.67-0.59v-0.18h-0.22v0.17l-0.76,0.67v0.2h-0.13V19.7       h-0.39v-0.22h-0.21v0.18h-0.09v-1.04h-1.11l-0.09,0.07v-1.25l-0.06-0.05v-0.61h-1.15v0.52l-0.05,0.08v0.17l-0.11,0.1v0.82       h-0.29v-0.1h-0.13v-2.26h-0.08v2.26h-0.26v0.12h-0.28v0.11h-0.15v0.26h-0.2v0.49h-0.19v-0.51h-0.89v0.1h-0.27v-0.15h-0.26       v-0.11h-0.25v-2l0.56-0.42h-0.15v-0.24h-0.48l-0.13-2.4l-0.14,2.41h-0.52v0.22h-0.17l0.67,0.43l-0.07,1.99h-0.19l-0.09,0.08       v-0.13h-0.23v0.63h-0.16v-0.14H39.1v-3.21h-0.28v-1.41h-0.06v2.04h-0.17v0.19h-0.2v0.39h-0.37v0.14h-0.19v-0.3h-0.43v2.19       h-0.36v-1.28h-0.78v1.53h-0.27v-0.42h-0.16v-0.63l-1,0.13v1.39l-0.13-0.12v-1.21l-1.06-0.16v2.32H33.2l-0.21-0.18v-0.33h-0.11       v-0.31c0-0.07-0.06-0.12-0.14-0.12c-0.08,0-0.15,0.06-0.15,0.13v0.28H32.5v0.37l-0.44,0.17h-0.28v1.33L31.52,22.02L31.52,22.02       z"/>
				</g>
			</g>
			<rect x="48.21" y="21.26" class="st2" width="3" height="1.19"/>
			<rect x="66.79" y="21.93" class="st2" width="1.78" height="0.6"/>
		</g>
		<g>
			<g>
				<path class="st0" d="M85.76,90.93l-6.18-57.55H26.8l-6.18,57.55c-0.12,1.13,0.86,2.11,2.11,2.11h16.68v-9.97      c0-6.88,6.17-12.46,13.78-12.46c3.81,0,7.25,1.4,9.75,3.64c2.49,2.26,4.04,5.37,4.04,8.82v9.97h16.68      C84.9,93.04,85.89,92.06,85.76,90.93z"/>
			</g>
			<g>
				<path class="st1" d="M45.69,44.3v6.51c0,1.16-1.16,2.1-2.59,2.1h-3.16c-1.43,0-2.59-0.95-2.59-2.1V44.3      c0-2.08,1.87-3.77,4.17-3.77c1.15,0,2.2,0.42,2.95,1.1C45.22,42.32,45.69,43.26,45.69,44.3z"/>
				<path class="st1" d="M57.36,44.3v6.51c0,1.16-1.16,2.1-2.59,2.1h-3.16c-1.43,0-2.59-0.95-2.59-2.1V44.3      c0-2.08,1.87-3.77,4.17-3.77c1.15,0,2.2,0.42,2.95,1.1C56.9,42.32,57.36,43.26,57.36,44.3z"/>
				<path class="st1" d="M69.03,44.3v6.51c0,1.16-1.16,2.1-2.59,2.1h-3.16c-1.43,0-2.59-0.95-2.59-2.1V44.3      c0-2.08,1.87-3.77,4.17-3.77c1.15,0,2.2,0.42,2.95,1.1C68.57,42.32,69.03,43.26,69.03,44.3z"/>
			</g>
		</g>
		<g>
			<path class="st0" d="M24.03,25.43c0-0.42,0.2-0.77,0.46-0.77h28.85c0.25,0,0.46,0.34,0.46,0.77v4.34c0,0.42-0.2,0.77-0.46,0.77     H26.21"/>
			<path class="st0" d="M82.4,25.43c0-0.42-0.2-0.77-0.46-0.77H53.09c-0.25,0-0.46,0.34-0.46,0.77v4.34c0,0.42,0.2,0.77,0.46,0.77     h27.13"/>
		</g>
	</g>
	
</g>
</svg>